<svg xmlns="http://www.w3.org/2000/svg" width="128" height="128" viewBox="0 0 128 128">
  <defs>
    <linearGradient id="bg" x1="0%" y1="0%" x2="100%" y2="100%">
      <stop offset="0%" style="stop-color:#6366f1;stop-opacity:1" />
      <stop offset="100%" style="stop-color:#8b5cf6;stop-opacity:1" />
    </linearGradient>
  </defs>
  <rect width="128" height="128" rx="16" fill="url(#bg)"/>
  <g fill="#fff">
    <rect x="20" y="20" width="18" height="18" rx="3" opacity="0.9"/>
    <rect x="42" y="20" width="18" height="18" rx="3" opacity="0.75"/>
    <rect x="64" y="20" width="18" height="18" rx="3" opacity="0.6"/>
    <rect x="86" y="20" width="18" height="18" rx="3" opacity="0.45"/>
    <rect x="20" y="42" width="18" height="18" rx="3" opacity="0.75"/>
    <rect x="42" y="42" width="18" height="18" rx="3" fill="#fbbf24"/>
    <rect x="64" y="42" width="18" height="18" rx="3" opacity="0.6"/>
    <rect x="86" y="42" width="18" height="18" rx="3" opacity="0.45"/>
    <rect x="20" y="64" width="18" height="18" rx="3" opacity="0.6"/>
    <rect x="42" y="64" width="18" height="18" rx="3" opacity="0.6"/>
    <rect x="64" y="64" width="18" height="18" rx="3" fill="#34d399"/>
    <rect x="86" y="64" width="18" height="18" rx="3" opacity="0.45"/>
    <rect x="20" y="86" width="18" height="18" rx="3" opacity="0.45"/>
    <rect x="42" y="86" width="18" height="18" rx="3" opacity="0.45"/>
    <rect x="64" y="86" width="18" height="18" rx="3" opacity="0.45"/>
    <rect x="86" y="86" width="18" height="18" rx="3" fill="#f87171"/>
  </g>
  <text x="64" y="118" text-anchor="middle" font-family="Arial, sans-serif" font-size="14" font-weight="bold" fill="#fff">社团战棋</text>
</svg>
